<?xml version="1.0" encoding="UTF-8" standalone="no"?>
<svg
   data-v-2cb57da0=""
   version="1.0"
   width="258.89999"
   height="56.129162"
   viewBox="0 0 258.89999 56.129162"
   preserveAspectRatio="xMidYMid"
   color-interpolation-filters="sRGB"
   id="svg350"
   sodipodi:docname="logo.svg"
   xml:space="preserve"
   inkscape:version="1.2.2 (732a01da63, 2022-12-09)"
   xmlns:inkscape="http://www.inkscape.org/namespaces/inkscape"
   xmlns:sodipodi="http://sodipodi.sourceforge.net/DTD/sodipodi-0.dtd"
   xmlns="http://www.w3.org/2000/svg"
   xmlns:svg="http://www.w3.org/2000/svg"><sodipodi:namedview
     id="namedview352"
     pagecolor="#505050"
     bordercolor="#eeeeee"
     borderopacity="1"
     inkscape:showpageshadow="0"
     inkscape:pageopacity="0"
     inkscape:pagecheckerboard="0"
     inkscape:deskcolor="#505050"
     showgrid="false"
     inkscape:zoom="4.664"
     inkscape:cx="60.67753"
     inkscape:cy="28.087479"
     inkscape:window-width="2560"
     inkscape:window-height="1369"
     inkscape:window-x="-8"
     inkscape:window-y="502"
     inkscape:window-maximized="1"
     inkscape:current-layer="svg350" /><g
     data-v-2cb57da0=""
     fill="#feffff"
     class="iconbordersvg"
     id="g306"><g
       data-gra="graph-icon-name"
       id="g304"><path
         id="polyline253"
         style="fill:#000000;stroke:#feffff;stroke-width:0"
         d="M 10,0 H 76 L 66,56.129162 H 0 L 10,0" /><g
         data-gra="graph-name"
         transform="translate(78)"
         mask="url(#e5f85846-a641-4731-ab49-e1f263db269d)"
         id="g300"
         style="fill:#000000;fill-opacity:1"
         inkscape:label="rhombus"><path
           id="polyline286"
           style="stroke:#feffff;stroke-width:0"
           transform="translate(-3.0517578e-6)"
           d="m 0,0 h 180.89999 l -10,56.129162 H -10 L 0,0" /></g><g
         id="g522"
         transform="matrix(0.1110954,0,0,0.1110954,17.627998,10.233769)"
         style="fill:#ffffff;fill-opacity:1"
         inkscape:label="icon">
	<path
   fill="#323232"
   d="m 382.8,0 h -154 v 187 h 71 v 104 h -190 v -34 h 82 V 24 H 0 v 233 h 79.8 v 49 c 0,8.3 7.4,15 15.7,15 h 220.2 c 8.3,0 15,-6.7 15,-15 V 187 h 52.1 z m -352,55 h 130 v 172 h -130 z m 322,101.1 H 259.7 V 30.9 h 93.1 z"
   id="path512"
   style="fill:#ffffff;fill-opacity:1" />
	<path
   id="rect514"
   d="M 94.800003,75 H 133.8 v 30 H 94.800003 Z" />
	<path
   id="rect516"
   d="m 295.79999,53 h 39 v 30 h -39 z" />
	<path
   id="rect518"
   d="M 56.799999,118 H 133.8 v 30 H 56.799999 Z" />
	<path
   id="rect520"
   d="M 56.799999,161 H 133.8 v 30 H 56.799999 Z" />
</g><g
         aria-label="LANCommander"
         id="text1143"
         style="font-size:34.126px;line-height:1;font-family:'Christmas Day';-inkscape-font-specification:'Christmas Day, Normal';text-align:center;letter-spacing:2.24663px;text-anchor:middle;fill:#ffffff;stroke-width:0.710958"
         inkscape:label="text"><path
           d="m 85.054295,37.345907 h 3.532574 l -0.48323,2.666094 h -6.48194 l 4.332402,-23.894865 h 2.899377 z"
           style="font-style:italic;font-family:SNES;-inkscape-font-specification:'SNES Italic'"
           id="path214" /><path
           d="m 99.498303,33.380093 1.049777,-10.581059 -3.649219,10.581059 z m -3.532575,2.69942 -1.34971,3.932488 h -3.049344 l 8.998066,-23.894865 h 2.86605 l -1.86626,23.894865 h -2.716088 l 0.383251,-3.932488 z"
           style="font-style:italic;font-family:SNES;-inkscape-font-specification:'SNES Italic'"
           id="path216" /><path
           d="m 105.42748,40.012001 4.3324,-23.894865 h 2.88271 q 1.24973,12.930555 1.29972,18.246079 0.16663,-4.69899 2.59944,-18.246079 h 2.88272 l -4.3324,23.894865 h -2.88272 q -1.23307,-12.880565 -1.28306,-17.812839 -0.16663,4.132446 -2.59944,17.812839 z"
           style="font-style:italic;font-family:SNES;-inkscape-font-specification:'SNES Italic'"
           id="path218" /><path
           d="m 128.56961,19.599721 v -0.09998 q 0,-0.299936 -0.19995,-0.499893 -0.19996,-0.183294 -0.4999,-0.183294 h -1.54966 q -0.34993,0 -0.64986,0.233283 -0.28328,0.21662 -0.34993,0.549882 l -3.04934,16.946358 v 0.08332 q 0,0.283272 0.19995,0.499892 0.19996,0.21662 0.4999,0.21662 h 1.533 q 0.81649,0 1.01645,-0.833154 l 0.8998,-5.015589 h 2.78274 l -1.13309,6.365299 q -0.18329,0.91647 -0.93313,1.533004 -0.74984,0.616534 -1.69964,0.616534 h -3.98248 q -0.88314,0 -1.49967,-0.633197 -0.61654,-0.633197 -0.61654,-1.516341 v -0.416577 l 3.4326,-19.162549 q 0.18329,-0.933132 0.91647,-1.549667 0.74984,-0.616534 1.68297,-0.616534 h 4.04913 q 0.86648,0 1.48301,0.633197 0.6332,0.633198 0.6332,1.533004 0,0.249947 -0.0333,0.383251 l -1.06644,5.965385 h -2.76607 z"
           style="font-style:italic;font-family:SNES;-inkscape-font-specification:'SNES Italic'"
           id="path220" /><path
           d="m 135.24862,36.629395 q 0,0.283272 0.19996,0.499892 0.19996,0.21662 0.49989,0.21662 h 1.53301 q 0.81649,0 1.01645,-0.833154 l 3.04934,-16.913032 v -0.09998 q 0,-0.299936 -0.19996,-0.499893 -0.19995,-0.183294 -0.49989,-0.183294 h -1.54967 q -0.34992,0 -0.64986,0.233283 -0.28327,0.21662 -0.34992,0.549882 l -3.04935,16.946358 z m 7.14847,-20.512259 q 0.86648,0 1.48301,0.633197 0.6332,0.633198 0.6332,1.533004 0,0.249947 -0.0333,0.383251 l -3.43259,19.195875 q -0.1833,0.91647 -0.93314,1.533004 -0.74983,0.616534 -1.69963,0.616534 h -3.98248 q -0.88314,0 -1.49968,-0.633197 -0.61653,-0.633197 -0.61653,-1.516341 v -0.416577 l 3.4326,-19.162549 q 0.18329,-0.933132 0.91647,-1.549667 0.74983,-0.616534 1.68297,-0.616534 z"
           style="font-style:italic;font-family:SNES;-inkscape-font-specification:'SNES Italic'"
           id="path222" /><path
           d="m 150.85905,24.915245 -2.68275,15.096756 h -2.88272 l 4.34907,-23.894865 h 3.61589 l -0.36659,17.212968 5.76543,-17.212968 h 3.96581 l -4.3324,23.894865 h -2.88272 l 2.64944,-14.913462 -4.84896,14.913462 h -2.53279 z"
           style="font-style:italic;font-family:SNES;-inkscape-font-specification:'SNES Italic'"
           id="path224" /><path
           d="m 168.10246,24.915245 -2.68276,15.096756 h -2.88271 l 4.34907,-23.894865 h 3.61588 l -0.36658,17.212968 5.76542,-17.212968 h 3.96582 l -4.3324,23.894865 h -2.88272 l 2.64943,-14.913462 -4.84895,14.913462 h -2.53279 z"
           style="font-style:italic;font-family:SNES;-inkscape-font-specification:'SNES Italic'"
           id="path226" /><path
           d="m 186.92886,33.380093 1.04978,-10.581059 -3.64922,10.581059 z m -3.53257,2.69942 -1.34971,3.932488 h -3.04935 l 8.99807,-23.894865 h 2.86605 l -1.86627,23.894865 H 186.279 l 0.38325,-3.932488 z"
           style="font-style:italic;font-family:SNES;-inkscape-font-specification:'SNES Italic'"
           id="path228" /><path
           d="m 192.85803,40.012001 4.3324,-23.894865 h 2.88271 q 1.24973,12.930555 1.29972,18.246079 0.16663,-4.69899 2.59945,-18.246079 h 2.88271 l -4.3324,23.894865 h -2.88272 q -1.23307,-12.880565 -1.28305,-17.812839 -0.16664,4.132446 -2.59945,17.812839 z"
           style="font-style:italic;font-family:SNES;-inkscape-font-specification:'SNES Italic'"
           id="path230" /><path
           d="m 212.66756,37.345907 q 0.36658,0 0.64986,-0.233283 0.28327,-0.233283 0.33326,-0.599871 l 3.08267,-16.913032 q 0.0167,-0.04999 0.0167,-0.09998 0,-0.299936 -0.19995,-0.499893 -0.19996,-0.183294 -0.4999,-0.183294 h -2.58278 l -3.3826,18.529351 z m 4.91561,-21.228771 q 0.88314,0 1.51634,0.633197 0.63319,0.633198 0.63319,1.533004 0,0.09998 -0.0666,0.383251 l -3.44926,19.195875 q -0.16663,0.91647 -0.8998,1.533004 -0.73318,0.616534 -1.68297,0.616534 h -6.8652 l 4.33241,-23.894865 z"
           style="font-style:italic;font-family:SNES;-inkscape-font-specification:'SNES Italic'"
           id="path232" /><path
           d="m 224.79539,16.117136 h 6.48194 l -0.46656,2.69942 h -3.59923 l -1.34971,7.548378 h 3.58257 l -0.4999,2.666094 h -3.5659 l -1.48301,8.314879 h 3.53257 l -0.48323,2.666094 h -6.48194 z"
           style="font-style:italic;font-family:SNES;-inkscape-font-specification:'SNES Italic'"
           id="path234" /><path
           d="m 238.80616,26.61488 q 0.36658,0 0.64986,-0.249946 0.28327,-0.233283 0.33326,-0.583208 l 1.13309,-6.182005 v -0.09998 q 0,-0.299936 -0.19996,-0.499893 -0.21662,-0.183294 -0.51655,-0.183294 h -2.29951 l -1.41636,7.798324 z m 0.16663,3.532574 q 0,-0.283272 -0.19996,-0.483229 -0.19996,-0.199957 -0.48323,-0.199957 h -2.31617 l -1.86626,10.547733 h -2.91604 l 4.28241,-23.894865 h 6.41529 q 0.86648,0 1.49968,0.633197 0.63319,0.616535 0.66652,1.516341 0,0.08332 -0.0666,0.399914 l -1.33305,7.531715 q -0.3166,1.56633 -1.8496,1.99957 0.5832,0.21662 0.88314,0.766502 0.23328,0.43324 0.23328,0.966459 0,0.116642 -0.0167,0.249946 0,0.249947 -0.0167,0.383251 l -1.73296,9.44797 h -2.93271 l 1.74963,-9.781231 z"
           style="font-style:italic;font-family:SNES;-inkscape-font-specification:'SNES Italic'"
           id="path236" /></g></g></g><mask
     id="e5f85846-a641-4731-ab49-e1f263db269d"><g
       fill="#ffffff"
       id="g335"><rect
         data-gra="graph-name-bg"
         stroke-width="2"
         class="i-icon-bg"
         id="rect331"
         width="0"
         height="0"
         x="0"
         y="0" /><polyline
         data-gra="graph-name-bg"
         stroke-width="0"
         x="0"
         y="0"
         width="170.89999389648438"
         height="56.1291618347168"
         fill-opacity="1"
         stroke="#feffff"
         points="0,0 180.89999389648438,0 170.89999389648438,56.1291618347168 -10,56.1291618347168, 0,0"
         id="polyline333" /></g><g
       transform="translate(5,19.589581)"
       fill="#000000"
       id="g345"><g
         data-gra="path-name"
         fill-rule=""
         class="tp-name"
         opacity="0"
         id="g343"><g
           id="g341"><g
             id="g339"><path
               d="M 12.25,-2.68 H 5.09 L 7.65,-15.85 H 4.8 L 1.72,0 h 9.86 z M 26.88,0 c 0,0 -2.66,-14.45 -2.93,-15.85 H 21.38 L 12.29,0 h 2.91 l 1.95,-3.43 H 23.2 L 23.83,0 Z m -8.35,-5.94 c 0,0 2.49,-4.65 3.35,-6.29 h 0.07 c 0.36,2.27 0.91,6.27 0.91,6.27 z m 19.85,0.43 c -0.33,-0.88 -0.85,-2.2 -0.91,-2.35 l -3.44,-7.99 H 31.66 L 28.58,0 h 2.8 l 1.81,-9.22 c 0.07,-0.41 0.15,-0.83 0.22,-1.23 0.24,0.68 0.56,1.57 0.67,1.83 0.73,1.76 3.6,8.38 3.7,8.62 h 2.32 l 3.09,-15.85 h -2.81 c -1.18,6.09 -1.71,8.86 -2,10.34 z m 5.74,-2.48 c -0.78,3.97 0.42,8.31 5.14,8.31 1.91,0 4.28,-0.67 6.29,-3.23 l -1.97,-1.61 c -1.53,1.78 -2.93,2.18 -4.08,2.18 -2.02,0 -3.15,-2.22 -2.52,-5.48 0.64,-3.34 2.67,-5.53 4.89,-5.53 0.86,0 1.97,0.2 2.91,1.85 l 2.35,-1.45 c -1.13,-2.51 -3.31,-3.08 -4.9,-3.08 -4.7,0 -7.3,3.85 -8.11,8.04 z m 19.07,-1.37 c 1.75,0 2.22,1.62 1.83,3.64 -0.38,1.94 -1.65,3.62 -3.25,3.62 -1.5,0 -2.22,-1.72 -1.85,-3.64 0.35,-1.8 1.56,-3.62 3.27,-3.62 z m -1.86,9.62 c 3.72,0 5.83,-3.24 6.37,-6 0.48,-2.42 -0.04,-5.98 -4.05,-5.98 -3.9,0 -5.94,3.57 -6.4,5.99 -0.53,2.69 0.29,5.99 4.08,5.99 z M 84.94,0 86.29,-6.98 c 0.54,-2.75 -0.05,-4.96 -3.2,-4.73 -1.52,0.12 -2.69,1.23 -3.59,2.15 -0.39,-1.84 -1.95,-2.26 -3.17,-2.15 -1.26,0.12 -2.2,0.88 -3.31,1.89 l 0.1,-1.7 H 70.84 L 68.61,0 h 2.68 l 1.39,-7.15 c 0.64,-0.96 1.54,-2.05 2.82,-2.16 1.29,-0.1 1.56,1.02 1.31,2.31 l -1.36,7 h 2.7 l 1.39,-7.25 c 0.59,-0.97 1.58,-1.98 2.69,-2.06 1.35,-0.08 1.64,0.97 1.37,2.31 l -1.36,7 z m 18.93,0 1.35,-6.98 c 0.54,-2.75 -0.05,-4.96 -3.2,-4.73 -1.52,0.12 -2.69,1.23 -3.59,2.15 -0.39,-1.84 -1.95,-2.26 -3.17,-2.15 -1.26,0.12 -2.2,0.88 -3.31,1.89 l 0.1,-1.7 H 89.77 L 87.54,0 h 2.68 l 1.38,-7.15 c 0.65,-0.96 1.55,-2.05 2.83,-2.16 1.28,-0.1 1.56,1.02 1.3,2.31 l -1.36,7 h 2.7 l 1.39,-7.25 c 0.59,-0.97 1.58,-1.98 2.7,-2.06 1.35,-0.08 1.64,0.97 1.37,2.31 l -1.36,7 z m 9.29,-3.63 c -0.67,0.87 -1.84,1.65 -2.84,1.65 -1.02,0 -1.43,-0.54 -1.24,-1.52 0.38,-1.98 3.03,-1.99 4.44,-1.99 z m 1.9,3.63 1.16,-5.94 c 0.59,-3.06 0.76,-5.76 -3.41,-5.76 -1.45,0 -2.94,0.4 -4.38,1.55 l 0.95,1.82 c 1.21,-0.72 2.08,-1.03 3.07,-1.03 1.51,0 1.7,0.58 1.4,2.1 -2.67,0.02 -6.69,0.1 -7.41,3.78 -0.42,2.15 0.55,3.78 2.84,3.78 1.36,0 2.81,-0.95 3.77,-1.81 C 113,-1.25 112.86,0 112.86,0 Z M 119.69,-11.52 117.45,0 h 2.68 l 1.4,-7.22 c 0.7,-1 1.73,-2.02 2.83,-2.02 1.35,0 1.61,0.98 1.36,2.27 L 124.36,0 h 2.66 l 1.36,-6.96 c 0.5,-2.56 0.09,-4.96 -2.96,-4.75 -1.22,0.09 -2.27,0.59 -3.48,1.78 l 0.22,-1.59 z m 20,11.52 3.23,-16.63 -2.84,0.99 -1.05,5.43 c -0.72,-0.94 -1.55,-1.52 -2.79,-1.52 -3.82,0 -5.65,3.58 -6.18,6.3 -0.5,2.56 0.15,5.7 3.58,5.7 1.47,0 2.66,-0.67 3.9,-1.83 L 137.34,0 Z m -1.83,-4.18 c -0.75,1.14 -1.91,1.97 -3.2,1.97 -1.72,0 -2.08,-1.77 -1.77,-3.41 0.35,-1.76 1.31,-3.59 3.25,-3.59 1.18,0 2.03,0.72 2.35,1.75 z m 14.79,-0.86 c 0.16,-0.59 0.2,-0.69 0.24,-0.86 0.51,-2.72 -0.08,-5.79 -3.68,-5.79 -3.51,0 -5.81,2.7 -6.51,6.29 -0.52,2.62 0.28,5.7 3.88,5.7 2.43,0 3.92,-0.66 5.53,-2.72 l -1.7,-1.21 c -1.16,1.41 -2.17,1.62 -3.28,1.62 -1.59,0 -2.23,-1.12 -1.88,-3.03 z m -6.93,-1.83 c 0.47,-1.35 1.53,-2.48 2.9,-2.48 1.47,0 1.99,1.05 1.85,2.48 z m 16.9,-4.35 c -0.45,-0.35 -1.13,-0.54 -1.62,-0.5 -1.31,0.13 -2.09,0.88 -2.91,1.74 l 0.11,-1.54 h -2.23 L 153.73,0 h 2.61 l 1.43,-7.3 c 0.77,-1.19 1.52,-1.89 2.58,-1.89 0.24,0 0.59,0.11 1.1,0.31 z"
               transform="translate(-1.72,16.629999)"
               id="path337" /></g></g></g></g></mask><defs
     v-gra="od"
     id="defs348"><mask
       maskUnits="userSpaceOnUse"
       id="mask1263"><g
         id="g1287"
         transform="translate(-15,-5.0000001)"><g
           fill="#ffffff"
           id="g1269"><rect
             data-gra="graph-name-bg"
             stroke-width="2"
             class="i-icon-bg"
             id="rect1265"
             width="0"
             height="0"
             x="0"
             y="0" /><polyline
             data-gra="graph-name-bg"
             stroke-width="0"
             x="0"
             y="0"
             width="76"
             height="56.1291618347168"
             fill-opacity="1"
             stroke="#feffff"
             points="10,0 76,0 66,56.1291618347168 0,56.1291618347168, 10,0"
             id="polyline1267" /></g><g
           transform="translate(15,5)"
           fill="#000000"
           id="g1285"><g
             class="iconsvg-imagesvg"
             opacity="0"
             id="g1283"><g
               id="g1281"><svg
                 x="0"
                 y="0"
                 width="46"
                 height="46.129162"
                 class="image-svg-svg primary"
                 style="overflow:visible"
                 filter="url(#colorsb5001276474)"
                 version="1.1"
                 id="svg1277"><svg
                   version="1.1"
                   x="0px"
                   y="0px"
                   viewBox="0.4000001 0.4000001 71.199997 71.400002"
                   enable-background="new 0 0 72 72"
                   xml:space="preserve"
                   id="svg1275"
                   width="100%"
                   height="100%"><g
                     id="g1273"><path
                       d="M 66.6,52.1 H 65 c -0.7,0 -1.2,-0.5 -1.2,-1.2 V 35.2 C 63.8,34.5 63.3,34 62.6,34 h -24 c -0.7,0 -1.2,-0.5 -1.2,-1.2 V 21.1 c 0,-0.7 0.5,-1.2 1.2,-1.2 h 1.6 c 2.8,0 5,-2.2 5,-5 V 5.4 c 0,-2.8 -2.2,-5 -5,-5 h -9.6 c -2.8,0 -5,2.2 -5,5 V 15 c 0,2.8 2.2,5 5,5 h 1.6 c 0.7,0 1.2,0.5 1.2,1.2 v 11.7 c 0,0.7 -0.5,1.2 -1.2,1.2 H 9.4 c -0.7,0 -1.2,0.5 -1.2,1.2 V 51 c 0,0.7 -0.5,1.2 -1.2,1.2 H 5.4 c -2.8,0 -5,2.2 -5,5 v 9.6 c 0,2.8 2.2,5 5,5 H 15 c 2.8,0 5,-2.2 5,-5 v -9.6 c 0,-2.8 -2.2,-5 -5,-5 h -1.6 c -0.7,0 -1.2,-0.5 -1.2,-1.2 V 39.2 c 0,-0.7 0.5,-1.2 1.2,-1.2 h 18.9 c 0.7,0 1.2,0.5 1.2,1.2 v 11.7 c 0,0.7 -0.5,1.2 -1.2,1.2 h -1.6 c -2.8,0 -5,2.2 -5,5 v 9.6 c 0,2.8 2.2,5 5,5 h 9.6 c 2.8,0 5,-2.2 5,-5 v -9.6 c 0,-2.8 -2.2,-5 -5,-5 h -1.6 c -0.7,0 -1.2,-0.5 -1.2,-1.2 V 39.2 C 37.5,38.5 38,38 38.7,38 h 20 c 0.7,0 1.2,0.5 1.2,1.2 v 11.7 c 0,0.7 -0.5,1.2 -1.2,1.2 H 57 c -2.8,0 -5,2.2 -5,5 v 9.6 c 0,2.8 2.2,5 5,5 h 9.6 c 2.8,0 5,-2.2 5,-5 v -9.6 c 0,-2.8 -2.3,-5 -5,-5 z M 29.6,14.9 V 5.4 c 0,-0.6 0.5,-1.1 1.1,-1.1 h 9.6 c 0.6,0 1,0.5 1,1.1 V 15 c 0,0.6 -0.5,1.1 -1,1.1 H 30.7 C 30.1,16 29.6,15.5 29.6,14.9 Z M 16,57.1 v 9.6 c 0,0.6 -0.5,1.1 -1.1,1.1 H 5.4 c -0.6,0 -1.1,-0.5 -1.1,-1.1 v -9.6 c 0,-0.6 0.5,-1 1,-1 H 15 c 0.6,-0.1 1,0.4 1,1 z m 25.3,0 v 9.6 c 0,0.6 -0.5,1.1 -1,1.1 h -9.6 c -0.6,0 -1.1,-0.5 -1.1,-1.1 v -9.6 c 0,-0.6 0.5,-1 1.1,-1 h 9.6 c 0.5,-0.1 1,0.4 1,1 z m 26.3,9.5 c 0,0.6 -0.5,1.1 -1.1,1.1 H 57 c -0.6,0 -1.1,-0.5 -1.1,-1.1 V 57 c 0,-0.6 0.5,-1 1.1,-1 h 9.6 c 0.6,0 1.1,0.5 1.1,1 v 9.6 z"
                       id="path1271" /></g></svg></svg><defs
                 id="defs1279" /></g></g></g></g></mask><mask
       maskUnits="userSpaceOnUse"
       id="mask1289"><g
         id="g1313"><g
           fill="#ffffff"
           id="g1295"><rect
             data-gra="graph-name-bg"
             stroke-width="2"
             class="i-icon-bg"
             id="rect1291"
             width="0"
             height="0"
             x="0"
             y="0" /><polyline
             data-gra="graph-name-bg"
             stroke-width="0"
             x="0"
             y="0"
             width="76"
             height="56.1291618347168"
             fill-opacity="1"
             stroke="#feffff"
             points="10,0 76,0 66,56.1291618347168 0,56.1291618347168, 10,0"
             id="polyline1293" /></g><g
           transform="translate(15,5)"
           fill="#000000"
           id="g1311"><g
             class="iconsvg-imagesvg"
             opacity="0"
             id="g1309"><g
               id="g1307"><svg
                 x="0"
                 y="0"
                 width="46"
                 height="46.129162"
                 class="image-svg-svg primary"
                 style="overflow:visible"
                 filter="url(#colorsb5001276474)"
                 version="1.1"
                 id="svg1303"><svg
                   version="1.1"
                   x="0px"
                   y="0px"
                   viewBox="0.4000001 0.4000001 71.199997 71.400002"
                   enable-background="new 0 0 72 72"
                   xml:space="preserve"
                   id="svg1301"
                   width="100%"
                   height="100%"><g
                     id="g1299"><path
                       d="M 66.6,52.1 H 65 c -0.7,0 -1.2,-0.5 -1.2,-1.2 V 35.2 C 63.8,34.5 63.3,34 62.6,34 h -24 c -0.7,0 -1.2,-0.5 -1.2,-1.2 V 21.1 c 0,-0.7 0.5,-1.2 1.2,-1.2 h 1.6 c 2.8,0 5,-2.2 5,-5 V 5.4 c 0,-2.8 -2.2,-5 -5,-5 h -9.6 c -2.8,0 -5,2.2 -5,5 V 15 c 0,2.8 2.2,5 5,5 h 1.6 c 0.7,0 1.2,0.5 1.2,1.2 v 11.7 c 0,0.7 -0.5,1.2 -1.2,1.2 H 9.4 c -0.7,0 -1.2,0.5 -1.2,1.2 V 51 c 0,0.7 -0.5,1.2 -1.2,1.2 H 5.4 c -2.8,0 -5,2.2 -5,5 v 9.6 c 0,2.8 2.2,5 5,5 H 15 c 2.8,0 5,-2.2 5,-5 v -9.6 c 0,-2.8 -2.2,-5 -5,-5 h -1.6 c -0.7,0 -1.2,-0.5 -1.2,-1.2 V 39.2 c 0,-0.7 0.5,-1.2 1.2,-1.2 h 18.9 c 0.7,0 1.2,0.5 1.2,1.2 v 11.7 c 0,0.7 -0.5,1.2 -1.2,1.2 h -1.6 c -2.8,0 -5,2.2 -5,5 v 9.6 c 0,2.8 2.2,5 5,5 h 9.6 c 2.8,0 5,-2.2 5,-5 v -9.6 c 0,-2.8 -2.2,-5 -5,-5 h -1.6 c -0.7,0 -1.2,-0.5 -1.2,-1.2 V 39.2 C 37.5,38.5 38,38 38.7,38 h 20 c 0.7,0 1.2,0.5 1.2,1.2 v 11.7 c 0,0.7 -0.5,1.2 -1.2,1.2 H 57 c -2.8,0 -5,2.2 -5,5 v 9.6 c 0,2.8 2.2,5 5,5 h 9.6 c 2.8,0 5,-2.2 5,-5 v -9.6 c 0,-2.8 -2.3,-5 -5,-5 z M 29.6,14.9 V 5.4 c 0,-0.6 0.5,-1.1 1.1,-1.1 h 9.6 c 0.6,0 1,0.5 1,1.1 V 15 c 0,0.6 -0.5,1.1 -1,1.1 H 30.7 C 30.1,16 29.6,15.5 29.6,14.9 Z M 16,57.1 v 9.6 c 0,0.6 -0.5,1.1 -1.1,1.1 H 5.4 c -0.6,0 -1.1,-0.5 -1.1,-1.1 v -9.6 c 0,-0.6 0.5,-1 1,-1 H 15 c 0.6,-0.1 1,0.4 1,1 z m 25.3,0 v 9.6 c 0,0.6 -0.5,1.1 -1,1.1 h -9.6 c -0.6,0 -1.1,-0.5 -1.1,-1.1 v -9.6 c 0,-0.6 0.5,-1 1.1,-1 h 9.6 c 0.5,-0.1 1,0.4 1,1 z m 26.3,9.5 c 0,0.6 -0.5,1.1 -1.1,1.1 H 57 c -0.6,0 -1.1,-0.5 -1.1,-1.1 V 57 c 0,-0.6 0.5,-1 1.1,-1 h 9.6 c 0.6,0 1.1,0.5 1.1,1 v 9.6 z"
                       id="path1297" /></g></svg></svg><defs
                 id="defs1305" /></g></g></g></g></mask></defs></svg>
