<?xml version="1.0" encoding="UTF-8" standalone="no"?><!DOCTYPE svg PUBLIC "-//W3C//DTD SVG 1.1//EN" "http://www.w3.org/Graphics/SVG/1.1/DTD/svg11.dtd"><svg width="100%" height="100%" viewBox="0 0 259 57" version="1.1" xmlns="http://www.w3.org/2000/svg" xmlns:xlink="http://www.w3.org/1999/xlink" xml:space="preserve" xmlns:serif="http://www.serif.com/" style="fill-rule:evenodd;clip-rule:evenodd;stroke-linejoin:round;stroke-miterlimit:2;"><path d="M10,0l65.5,0l-10.05,56.129l-65.45,0l10,-56.129" style="fill:#fff;fill-rule:nonzero;"/><path d="M78,0l180.9,0l-10,56.129l-180.55,0l10.05,-56.129" style="fill:#fff;fill-rule:nonzero;"/><path d="M60.155,10.234l-17.108,-0l-0,20.775l7.887,-0l0,11.554l-21.108,-0l0,-3.778l9.11,0l0,-25.885l-21.308,0l-0,25.885l8.865,0l0,5.444c0,0.922 0.823,1.666 1.745,1.666l24.463,0c0.922,0 1.666,-0.744 1.666,-1.666l0,-13.22l5.788,-0l0,-20.775Zm-39.105,6.11l14.442,0l0,19.108l-14.442,0l-0,-19.108Zm35.772,11.232l-10.343,-0l0,-13.909l10.343,-0l0,13.909Z" style="fill-rule:nonzero;"/><rect x="28.16" y="18.566" width="4.333" height="3.333" style="fill-rule:nonzero;"/><rect x="50.49" y="16.122" width="4.333" height="3.333" style="fill-rule:nonzero;"/><rect x="23.938" y="23.343" width="8.554" height="3.333" style="fill-rule:nonzero;"/><rect x="23.938" y="28.12" width="8.554" height="3.333" style="fill-rule:nonzero;"/><path d="M85.054,37.346l3.533,-0l-0.483,2.666l-6.482,0l4.332,-23.895l2.899,0l-3.799,21.229Z" style="fill-rule:nonzero;"/><path d="M99.498,33.38l1.05,-10.581l-3.649,10.581l2.599,0Zm-3.532,2.7l-1.35,3.932l-3.049,0l8.998,-23.895l2.866,0l-1.866,23.895l-2.717,0l0.384,-3.932l-3.266,-0Z" style="fill-rule:nonzero;"/><path d="M105.427,40.012l4.333,-23.895l2.883,0c0.833,8.621 1.266,14.703 1.299,18.246c0.111,-3.132 0.978,-9.214 2.6,-18.246l2.882,0l-4.332,23.895l-2.883,0c-0.822,-8.587 -1.249,-14.525 -1.283,-17.813c-0.111,2.755 -0.977,8.693 -2.599,17.813l-2.9,0Z" style="fill-rule:nonzero;"/><path d="M128.57,19.6l-0,-0.1c-0,-0.2 -0.067,-0.367 -0.2,-0.5c-0.134,-0.122 -0.3,-0.183 -0.5,-0.183l-1.55,-0c-0.233,-0 -0.45,0.077 -0.65,0.233c-0.189,0.144 -0.305,0.328 -0.35,0.55l-3.049,16.946l-0,0.083c-0,0.189 0.067,0.356 0.2,0.5c0.133,0.145 0.3,0.217 0.5,0.217l1.533,-0c0.544,-0 0.883,-0.278 1.016,-0.833l0.9,-5.016l2.783,0l-1.133,6.365c-0.122,0.611 -0.434,1.122 -0.933,1.533c-0.5,0.411 -1.067,0.617 -1.7,0.617l-3.983,0c-0.588,0 -1.088,-0.211 -1.499,-0.633c-0.411,-0.422 -0.617,-0.928 -0.617,-1.517l0,-0.416l3.433,-19.163c0.122,-0.622 0.428,-1.138 0.916,-1.549c0.5,-0.411 1.061,-0.617 1.683,-0.617l4.049,0c0.578,0 1.072,0.211 1.483,0.633c0.423,0.422 0.634,0.933 0.634,1.533c-0,0.167 -0.011,0.295 -0.034,0.384l-1.066,5.965l-2.766,-0l0.9,-5.032Z" style="fill-rule:nonzero;"/><path d="M135.249,36.629c-0,0.189 0.066,0.356 0.2,0.5c0.133,0.145 0.3,0.217 0.499,0.217l1.533,-0c0.545,-0 0.884,-0.278 1.017,-0.833l3.049,-16.913l0,-0.1c0,-0.2 -0.066,-0.367 -0.2,-0.5c-0.133,-0.122 -0.3,-0.183 -0.5,-0.183l-1.549,-0c-0.234,-0 -0.45,0.077 -0.65,0.233c-0.189,0.144 -0.306,0.328 -0.35,0.55l-3.049,16.946l-0,0.083Zm7.148,-20.512c0.578,0 1.072,0.211 1.483,0.633c0.422,0.422 0.633,0.933 0.633,1.533c0,0.167 -0.011,0.295 -0.033,0.384l-3.433,19.195c-0.122,0.611 -0.433,1.122 -0.933,1.533c-0.5,0.411 -1.066,0.617 -1.699,0.617l-3.983,0c-0.589,0 -1.088,-0.211 -1.5,-0.633c-0.411,-0.422 -0.616,-0.928 -0.616,-1.517l-0,-0.416l3.433,-19.163c0.122,-0.622 0.427,-1.138 0.916,-1.549c0.5,-0.411 1.061,-0.617 1.683,-0.617l4.049,0Z" style="fill-rule:nonzero;"/><path d="M150.859,24.915l-2.683,15.097l-2.882,0l4.349,-23.895l3.616,0l-0.367,17.213l5.765,-17.213l3.966,0l-4.332,23.895l-2.883,0l2.65,-14.913l-4.849,14.913l-2.533,0l0.183,-15.097Z" style="fill-rule:nonzero;"/><path d="M168.102,24.915l-2.682,15.097l-2.883,0l4.349,-23.895l3.616,0l-0.367,17.213l5.766,-17.213l3.966,0l-4.333,23.895l-2.883,0l2.65,-14.913l-4.849,14.913l-2.533,0l0.183,-15.097Z" style="fill-rule:nonzero;"/><path d="M186.929,33.38l1.05,-10.581l-3.65,10.581l2.6,0Zm-3.533,2.7l-1.349,3.932l-3.05,0l8.998,-23.895l2.866,0l-1.866,23.895l-2.716,0l0.383,-3.932l-3.266,-0Z" style="fill-rule:nonzero;"/><path d="M192.858,40.012l4.332,-23.895l2.883,0c0.833,8.621 1.267,14.703 1.3,18.246c0.111,-3.132 0.977,-9.214 2.599,-18.246l2.883,0l-4.332,23.895l-2.883,0c-0.822,-8.587 -1.25,-14.525 -1.283,-17.813c-0.111,2.755 -0.978,8.693 -2.6,17.813l-2.899,0Z" style="fill-rule:nonzero;"/><path d="M212.668,37.346c0.244,-0 0.461,-0.078 0.649,-0.233c0.189,-0.156 0.3,-0.356 0.334,-0.6l3.082,-16.913c0.011,-0.034 0.017,-0.067 0.017,-0.1c0,-0.2 -0.067,-0.367 -0.2,-0.5c-0.133,-0.122 -0.3,-0.183 -0.5,-0.183l-2.583,-0l-3.382,18.529l2.583,-0Zm4.915,-21.229c0.589,0 1.094,0.211 1.517,0.633c0.422,0.422 0.633,0.933 0.633,1.533c-0,0.067 -0.022,0.195 -0.067,0.384l-3.449,19.195c-0.111,0.611 -0.411,1.122 -0.9,1.533c-0.489,0.411 -1.05,0.617 -1.683,0.617l-6.865,0l4.332,-23.895l6.482,0Z" style="fill-rule:nonzero;"/><path d="M224.795,16.117l6.482,0l-0.466,2.7l-3.599,-0l-1.35,7.548l3.582,-0l-0.499,2.666l-3.566,0l-1.483,8.315l3.532,-0l-0.483,2.666l-6.482,0l4.332,-23.895Z" style="fill-rule:nonzero;"/><path d="M238.806,26.615c0.245,-0 0.461,-0.083 0.65,-0.25c0.189,-0.156 0.3,-0.35 0.333,-0.583l1.133,-6.182l0,-0.1c0,-0.2 -0.066,-0.367 -0.2,-0.5c-0.144,-0.122 -0.316,-0.183 -0.516,-0.183l-2.3,-0l-1.416,7.798l2.316,-0Zm0.167,3.532c-0,-0.188 -0.067,-0.349 -0.2,-0.483c-0.133,-0.133 -0.295,-0.2 -0.483,-0.2l-2.317,0l-1.866,10.548l-2.916,0l4.283,-23.895l6.415,0c0.577,0 1.077,0.211 1.5,0.633c0.422,0.411 0.644,0.917 0.666,1.517c0,0.055 -0.022,0.189 -0.067,0.4l-1.333,7.531c-0.211,1.045 -0.827,1.711 -1.849,2c0.389,0.144 0.683,0.4 0.883,0.766c0.155,0.289 0.233,0.611 0.233,0.967c0,0.078 -0.005,0.161 -0.017,0.25c0,0.166 -0.005,0.294 -0.016,0.383l-1.733,9.448l-2.933,0l1.75,-9.781l-0,-0.084Z" style="fill-rule:nonzero;"/></svg>