<?xml version="1.0" encoding="UTF-8" standalone="no"?>
<svg
   viewBox="0 0 431.59 96.1"
   version="1.1"
   width="431.59"
   height="96.099998"
   xmlns="http://www.w3.org/2000/svg"
   xmlns:svg="http://www.w3.org/2000/svg">
  <path fill="#fff" d="m 231.32,32.22 h -2.65 c -0.4,0 -0.77,0.13 -1.11,0.4 -0.32,0.25 -0.52,0.56 -0.6,0.94 l -5.22,29.01 v 0.14 c 0,0.32 0.11,0.61 0.34,0.86 0.23,0.25 0.51,0.37 0.86,0.37 h 2.62 c 0.93,0 1.51,-0.48 1.74,-1.43 l 5.22,-28.96 v -0.17 c 0,-0.34 -0.11,-0.63 -0.34,-0.86 -0.23,-0.21 -0.51,-0.31 -0.86,-0.31 z" />
  <polygon fill="#fff" points="321.64,39.03 315.39,57.15 319.85,57.15" transform="translate(-9.63)" />
  <polygon fill="#fff" points="171.95,39.03 165.7,57.15 170.15,57.15" transform="translate(-9.63)" />
  <path fill="#fff" d="m 360.07,32.22 h -4.42 l -5.79,31.72 h 4.42 c 0.42,0 0.79,-0.13 1.11,-0.4 0.32,-0.27 0.51,-0.61 0.57,-1.03 l 5.28,-28.96 c 0.02,-0.06 0.03,-0.11 0.03,-0.17 0,-0.34 -0.11,-0.63 -0.34,-0.86 -0.23,-0.21 -0.51,-0.31 -0.86,-0.31 z" />
  <path fill="#fff" d="m 123.08,0 -16.73,96.1 h 308.5 L 431.59,0 Z m 18.76,63.94 -0.83,4.56 h -11.1 l 7.42,-40.91 h 4.96 l -6.5,36.35 z m 22.22,4.56 h -4.65 l 0.66,-6.73 h -5.59 l -2.31,6.73 h -5.22 l 15.41,-40.91 h 4.91 l -3.2,40.91 z m 18.23,0 c -1.41,-14.7 -2.14,-24.87 -2.2,-30.5 -0.19,4.72 -1.67,14.88 -4.45,30.5 h -4.96 l 7.42,-40.91 h 4.94 c 1.43,14.76 2.17,25.17 2.23,31.24 0.19,-5.36 1.67,-15.78 4.45,-31.24 h 4.94 l -7.42,40.91 h -4.94 z m 33.03,-36.55 -1.83,10.21 h -4.74 l 1.54,-8.62 v -0.17 c 0,-0.34 -0.11,-0.63 -0.34,-0.86 -0.23,-0.21 -0.51,-0.31 -0.86,-0.31 h -2.65 c -0.4,0 -0.77,0.13 -1.11,0.4 -0.32,0.25 -0.52,0.56 -0.6,0.94 l -5.22,29.01 v 0.14 c 0,0.32 0.11,0.61 0.34,0.86 0.23,0.25 0.51,0.37 0.86,0.37 h 2.62 c 0.93,0 1.51,-0.48 1.74,-1.43 l 1.54,-8.59 h 4.76 l -1.94,10.9 c -0.21,1.05 -0.74,1.92 -1.6,2.62 -0.86,0.7 -1.83,1.06 -2.91,1.06 h -6.82 c -1.01,0 -1.86,-0.36 -2.57,-1.08 -0.71,-0.72 -1.06,-1.59 -1.06,-2.6 v -0.71 l 5.88,-32.81 c 0.21,-1.07 0.73,-1.95 1.57,-2.65 0.86,-0.7 1.82,-1.06 2.88,-1.06 h 6.93 c 0.99,0 1.84,0.36 2.54,1.08 0.72,0.72 1.08,1.6 1.08,2.62 0,0.29 -0.02,0.5 -0.06,0.66 z m 22.22,0 -5.88,32.87 c -0.21,1.05 -0.74,1.92 -1.6,2.62 -0.86,0.7 -1.83,1.06 -2.91,1.06 h -6.82 c -1.01,0 -1.86,-0.36 -2.57,-1.08 -0.71,-0.72 -1.06,-1.59 -1.06,-2.6 v -0.71 l 5.88,-32.81 c 0.21,-1.07 0.73,-1.95 1.57,-2.65 0.86,-0.7 1.82,-1.06 2.88,-1.06 h 6.93 c 0.99,0 1.84,0.36 2.54,1.08 0.72,0.72 1.08,1.6 1.08,2.62 0,0.29 -0.02,0.5 -0.06,0.66 z m 18.71,36.55 4.54,-25.53 -8.3,25.53 h -4.34 l 0.31,-25.85 -4.59,25.85 h -4.94 l 7.45,-40.91 h 6.19 l -0.63,29.47 9.87,-29.47 h 6.79 l -7.42,40.91 h -4.94 z m 29.52,0 4.54,-25.53 -8.3,25.53 h -4.34 l 0.31,-25.85 -4.59,25.85 h -4.94 l 7.45,-40.91 h 6.19 l -0.63,29.47 9.87,-29.47 h 6.79 L 290.7,68.5 h -4.94 z m 27.98,0 h -4.65 l 0.66,-6.73 h -5.59 l -2.31,6.73 h -5.22 l 15.41,-40.91 h 4.91 l -3.2,40.91 z m 18.23,0 c -1.41,-14.7 -2.14,-24.87 -2.2,-30.5 -0.19,4.72 -1.67,14.88 -4.45,30.5 h -4.96 l 7.42,-40.91 h 4.94 c 1.43,14.76 2.17,25.17 2.23,31.24 0.19,-5.36 1.67,-15.78 4.45,-31.24 h 4.94 l -7.42,40.91 h -4.94 z m 34.29,-36.55 -5.91,32.87 c -0.19,1.05 -0.7,1.92 -1.54,2.62 -0.84,0.7 -1.8,1.06 -2.88,1.06 h -11.75 l 7.42,-40.91 h 11.1 c 1.01,0 1.87,0.36 2.6,1.08 0.72,0.72 1.08,1.6 1.08,2.62 0,0.11 -0.04,0.33 -0.11,0.66 z m 16.74,13.18 -0.86,4.56 h -6.11 l -2.54,14.24 h 6.05 l -0.83,4.56 h -11.1 l 7.42,-40.91 h 11.1 l -0.8,4.62 h -6.16 l -2.31,12.92 H 383 Z m 24.9,-13.18 -2.28,12.9 c -0.36,1.79 -1.42,2.93 -3.17,3.42 0.67,0.25 1.17,0.68 1.51,1.31 0.27,0.49 0.4,1.05 0.4,1.65 0,0.13 0,0.28 -0.03,0.43 0,0.29 0,0.5 -0.03,0.66 l -2.97,16.18 h -5.02 l 3,-16.75 v -0.14 c 0,-0.32 -0.11,-0.6 -0.34,-0.83 -0.23,-0.23 -0.5,-0.34 -0.83,-0.34 h -3.97 l -3.2,18.06 h -4.99 l 7.33,-40.91 h 10.98 c 0.99,0 1.84,0.36 2.57,1.08 0.72,0.7 1.1,1.57 1.14,2.6 0,0.1 -0.04,0.32 -0.11,0.68 z" />
  <path fill="#fff" d="m 401.43,32.22 h -3.94 l -2.42,13.35 h 3.97 c 0.42,0 0.79,-0.14 1.11,-0.43 0.32,-0.27 0.51,-0.6 0.57,-1 l 1.94,-10.58 v -0.17 c 0,-0.34 -0.11,-0.63 -0.34,-0.86 -0.25,-0.21 -0.54,-0.31 -0.88,-0.31 z" />
  <path fill="#fff" d="M 0,0 V 96.1 H 101.48 L 118.21,0 Z m 90.69,53.09 h -9.91 v 22.63 c 0,1.58 -1.27,2.85 -2.85,2.85 H 36.05 c -1.58,0 -2.99,-1.27 -2.99,-2.85 V 66.4 H 17.88 V 22.09 h 36.48 v 44.32 h -15.6 v 6.47 H 74.9 V 53.1 H 61.4 V 17.52 h 29.29 z" />
  <path fill="#fff" d="M 84.99,23.4 H 67.28 v 23.81 h 17.71 z m -3.42,9.91 H 74.15 V 27.6 h 7.42 z" />
  <path fill="#fff" d="M 48.47,27.98 H 23.74 V 60.7 H 48.47 Z M 43.33,53.85 H 28.68 v -5.71 h 14.65 z m 0,-8.18 H 28.68 v -5.71 h 14.65 z m 0,-8.18 h -7.42 v -5.71 h 7.42 z" />
</svg>
