<?xml version="1.0" encoding="UTF-8"?>
<svg version="1.1" viewBox="0 0 441.22 96.1" xmlns="http://www.w3.org/2000/svg">
<defs>
<style>.cls-1{stroke-width:0px;}</style>
</defs>
<rect x="20.15" y="12.507" width="86.854" height="70.178"/>
<rect x="136.19" y="19.455" width="282.8" height="58.366"/>
<path class="cls-1" d="m240.95,32.22h-2.65c-.4,0-.77.13-1.11.4-.32.25-.52.56-.6.94l-5.22,29.01v.14c0,.32.11.61.34.86s.51.37.86.37h2.62c.93,0,1.51-.48,1.74-1.43l5.22-28.96v-.17c0-.34-.11-.63-.34-.86-.23-.21-.51-.31-.86-.31Z" fill="#fff"/>
<polygon class="cls-1" points="319.85 57.15 321.64 39.03 315.39 57.15" fill="#fff"/>
<polygon class="cls-1" points="170.15 57.15 171.95 39.03 165.7 57.15" fill="#fff"/>
<path class="cls-1" d="m369.7,32.22h-4.42l-5.79,31.72h4.42c.42,0,.79-.13,1.11-.4.32-.27.51-.61.57-1.03l5.28-28.96c.02-.06.03-.11.03-.17,0-.34-.11-.63-.34-.86-.23-.21-.51-.31-.86-.31Z" fill="#fff"/>
<path class="cls-1" d="m132.71 0-16.73 96.1h308.5l16.74-96.1zm18.76 63.94-0.83 4.56h-11.1l7.42-40.91h4.96l-6.5 36.35zm22.22 4.56h-4.65l0.66-6.73h-5.59l-2.31 6.73h-5.22l15.41-40.91h4.91l-3.2 40.91zm18.23 0c-1.41-14.7-2.14-24.87-2.2-30.5-0.19 4.72-1.67 14.88-4.45 30.5h-4.96l7.42-40.91h4.94c1.43 14.76 2.17 25.17 2.23 31.24 0.19-5.36 1.67-15.78 4.45-31.24h4.94l-7.42 40.91h-4.94zm33.03-36.55-1.83 10.21h-4.74l1.54-8.62v-0.17c0-0.34-0.11-0.63-0.34-0.86-0.23-0.21-0.51-0.31-0.86-0.31h-2.65c-0.4 0-0.77 0.13-1.11 0.4-0.32 0.25-0.52 0.56-0.6 0.94l-5.22 29.01v0.14c0 0.32 0.11 0.61 0.34 0.86s0.51 0.37 0.86 0.37h2.62c0.93 0 1.51-0.48 1.74-1.43l1.54-8.59h4.76l-1.94 10.9c-0.21 1.05-0.74 1.92-1.6 2.62s-1.83 1.06-2.91 1.06h-6.82c-1.01 0-1.86-0.36-2.57-1.08s-1.06-1.59-1.06-2.6v-0.71l5.88-32.81c0.21-1.07 0.73-1.95 1.57-2.65 0.86-0.7 1.82-1.06 2.88-1.06h6.93c0.99 0 1.84 0.36 2.54 1.08 0.72 0.72 1.08 1.6 1.08 2.62 0 0.29-0.02 0.5-0.06 0.66zm22.22 0-5.88 32.87c-0.21 1.05-0.74 1.92-1.6 2.62s-1.83 1.06-2.91 1.06h-6.82c-1.01 0-1.86-0.36-2.57-1.08s-1.06-1.59-1.06-2.6v-0.71l5.88-32.81c0.21-1.07 0.73-1.95 1.57-2.65 0.86-0.7 1.82-1.06 2.88-1.06h6.93c0.99 0 1.84 0.36 2.54 1.08 0.72 0.72 1.08 1.6 1.08 2.62 0 0.29-0.02 0.5-0.06 0.66zm18.71 36.55 4.54-25.53-8.3 25.53h-4.34l0.31-25.85-4.59 25.85h-4.94l7.45-40.91h6.19l-0.63 29.47 9.87-29.47h6.79l-7.42 40.91h-4.94zm29.52 0 4.54-25.53-8.3 25.53h-4.34l0.31-25.85-4.59 25.85h-4.94l7.45-40.91h6.19l-0.63 29.47 9.87-29.47h6.79l-7.42 40.91h-4.94zm27.98 0h-4.65l0.66-6.73h-5.59l-2.31 6.73h-5.22l15.41-40.91h4.91l-3.2 40.91zm18.23 0c-1.41-14.7-2.14-24.87-2.2-30.5-0.19 4.72-1.67 14.88-4.45 30.5h-4.96l7.42-40.91h4.94c1.43 14.76 2.17 25.17 2.23 31.24 0.19-5.36 1.67-15.78 4.45-31.24h4.94l-7.42 40.91h-4.94zm34.29-36.55-5.91 32.87c-0.19 1.05-0.7 1.92-1.54 2.62s-1.8 1.06-2.88 1.06h-11.75l7.42-40.91h11.1c1.01 0 1.87 0.36 2.6 1.08 0.72 0.72 1.08 1.6 1.08 2.62 0 0.11-0.04 0.33-0.11 0.66zm16.74 13.18-0.86 4.56h-6.11l-2.54 14.24h6.05l-0.83 4.56h-11.1l7.42-40.91h11.1l-0.8 4.62h-6.16l-2.31 12.92h6.13zm24.9-13.18-2.28 12.9c-0.36 1.79-1.42 2.93-3.17 3.42 0.67 0.25 1.17 0.68 1.51 1.31 0.27 0.49 0.4 1.05 0.4 1.65 0 0.13 0 0.28-0.03 0.43 0 0.29 0 0.5-0.03 0.66l-2.97 16.18h-5.02l3-16.75v-0.14c0-0.32-0.11-0.6-0.34-0.83s-0.5-0.34-0.83-0.34h-3.97l-3.2 18.06h-4.99l7.33-40.91h10.98c0.99 0 1.84 0.36 2.57 1.08 0.72 0.7 1.1 1.57 1.14 2.6 0 0.1-0.04 0.32-0.11 0.68z" fill="#fff"/>
<path class="cls-1" d="m411.06,32.22h-3.94l-2.42,13.35h3.97c.42,0,.79-.14,1.11-.43.32-.27.51-.6.57-1l1.94-10.58v-.17c0-.34-.11-.63-.34-.86-.25-.21-.54-.31-.88-.31Z" fill="#fff"/>
<path class="cls-1" d="m16.73,0L0,96.1h111.11L127.84,0H16.73Zm83.59,53.09h-9.91v22.63c0,1.58-1.27,2.85-2.85,2.85h-41.88c-1.58,0-2.99-1.27-2.99-2.85v-9.32h-15.18V22.09h36.48v44.32h-15.6v6.47h36.14v-19.78h-13.5V17.52h29.29v35.57Z" fill="#fff"/>
<path class="cls-1" d="m94.62 23.4h-17.71v23.81h17.71v-23.81zm-3.42 9.91h-7.42v-5.71h7.42v5.71z" fill="#fff"/>
<path class="cls-1" d="m58.1,27.98h-24.73v32.72h24.73V27.98Zm-5.14,25.87h-14.65v-5.71h14.65v5.71Zm0-8.18h-14.65v-5.71h14.65v5.71Zm0-8.18h-7.42v-5.71h7.42v5.71Z" fill="#fff"/>
</svg>
