<?xml version="1.0" encoding="UTF-8" standalone="no"?>
<svg version="1.0" width="258.89999" height="56.129162" viewBox="0 0 258.89999 56.129162" preserveAspectRatio="xMidYMid" color-interpolation-filters="sRGB"  xml:space="preserve" xmlns="http://www.w3.org/2000/svg" xmlns:svg="http://www.w3.org/2000/svg">
  <path style="fill:#ffffff;fill-opacity:1;stroke:#feffff;stroke-width:0" d="M 10,0 H 76 L 66,56.129162 H 0 L 10,0" />
  <path style="fill:#ffffff;fill-opacity:1;stroke:#feffff;stroke-width:0" d="M 77.999997,0 H 258.89999 l -10,56.129162 H 67.999997 L 77.999997,0" />
  <path fill="#323232" d="M 60.155317,10.233769 H 43.046626 v 20.77484 h 7.887773 V 42.56253 H 29.826273 v -3.777243 h 9.109823 V 12.900059 H 17.627998 v 25.885228 h 8.865413 v 5.443674 c 0,0.922092 0.822106,1.666431 1.744198,1.666431 h 24.463207 c 0.922092,0 1.666431,-0.744339 1.666431,-1.666431 V 31.008609 h 5.78807 z M 21.049736,16.344016 H 35.492138 V 35.452425 H 21.049736 Z M 56.822455,27.575761 H 46.479473 V 13.666617 h 10.342982 z" />
  <path d="m 28.159842,18.565924 h 4.332721 v 3.332862 h -4.332721 z" />
  <path d="m 50.490016,16.121825 h 4.332721 v 3.332862 h -4.332721 z" />
  <path d="m 23.938217,23.343026 h 8.554346 v 3.332862 h -8.554346 z" />
  <path d="m 23.938217,28.120128 h 8.554346 v 3.332862 h -8.554346 z" />
  <path d="m 85.054295,37.345907 h 3.532574 l -0.48323,2.666094 h -6.48194 l 4.332402,-23.894865 h 2.899377 z" />
  <path d="m 99.498303,33.380093 1.049777,-10.581059 -3.649219,10.581059 z m -3.532575,2.69942 -1.34971,3.932488 h -3.049344 l 8.998066,-23.894865 h 2.86605 l -1.86626,23.894865 h -2.716088 l 0.383251,-3.932488 z" />
  <path d="m 105.42748,40.012001 4.3324,-23.894865 h 2.88271 q 1.24973,12.930555 1.29972,18.246079 0.16663,-4.69899 2.59944,-18.246079 h 2.88272 l -4.3324,23.894865 h -2.88272 q -1.23307,-12.880565 -1.28306,-17.812839 -0.16663,4.132446 -2.59944,17.812839 z" />
  <path d="m 128.56961,19.599721 v -0.09998 q 0,-0.299936 -0.19995,-0.499893 -0.19996,-0.183294 -0.4999,-0.183294 h -1.54966 q -0.34993,0 -0.64986,0.233283 -0.28328,0.21662 -0.34993,0.549882 l -3.04934,16.946358 v 0.08332 q 0,0.283272 0.19995,0.499892 0.19996,0.21662 0.4999,0.21662 h 1.533 q 0.81649,0 1.01645,-0.833154 l 0.8998,-5.015589 h 2.78274 l -1.13309,6.365299 q -0.18329,0.91647 -0.93313,1.533004 -0.74984,0.616534 -1.69964,0.616534 h -3.98248 q -0.88314,0 -1.49967,-0.633197 -0.61654,-0.633197 -0.61654,-1.516341 v -0.416577 l 3.4326,-19.162549 q 0.18329,-0.933132 0.91647,-1.549667 0.74984,-0.616534 1.68297,-0.616534 h 4.04913 q 0.86648,0 1.48301,0.633197 0.6332,0.633198 0.6332,1.533004 0,0.249947 -0.0333,0.383251 l -1.06644,5.965385 h -2.76607 z" />
  <path d="m 135.24862,36.629395 q 0,0.283272 0.19996,0.499892 0.19996,0.21662 0.49989,0.21662 h 1.53301 q 0.81649,0 1.01645,-0.833154 l 3.04934,-16.913032 v -0.09998 q 0,-0.299936 -0.19996,-0.499893 -0.19995,-0.183294 -0.49989,-0.183294 h -1.54967 q -0.34992,0 -0.64986,0.233283 -0.28327,0.21662 -0.34992,0.549882 l -3.04935,16.946358 z m 7.14847,-20.512259 q 0.86648,0 1.48301,0.633197 0.6332,0.633198 0.6332,1.533004 0,0.249947 -0.0333,0.383251 l -3.43259,19.195875 q -0.1833,0.91647 -0.93314,1.533004 -0.74983,0.616534 -1.69963,0.616534 h -3.98248 q -0.88314,0 -1.49968,-0.633197 -0.61653,-0.633197 -0.61653,-1.516341 v -0.416577 l 3.4326,-19.162549 q 0.18329,-0.933132 0.91647,-1.549667 0.74983,-0.616534 1.68297,-0.616534 z" />
  <path d="m 150.85905,24.915245 -2.68275,15.096756 h -2.88272 l 4.34907,-23.894865 h 3.61589 l -0.36659,17.212968 5.76543,-17.212968 h 3.96581 l -4.3324,23.894865 h -2.88272 l 2.64944,-14.913462 -4.84896,14.913462 h -2.53279 z" />
  <path d="m 168.10246,24.915245 -2.68276,15.096756 h -2.88271 l 4.34907,-23.894865 h 3.61588 l -0.36658,17.212968 5.76542,-17.212968 h 3.96582 l -4.3324,23.894865 h -2.88272 l 2.64943,-14.913462 -4.84895,14.913462 h -2.53279 z" />
  <path d="m 186.92886,33.380093 1.04978,-10.581059 -3.64922,10.581059 z m -3.53257,2.69942 -1.34971,3.932488 h -3.04935 l 8.99807,-23.894865 h 2.86605 l -1.86627,23.894865 H 186.279 l 0.38325,-3.932488 z" />
  <path d="m 192.85803,40.012001 4.3324,-23.894865 h 2.88271 q 1.24973,12.930555 1.29972,18.246079 0.16663,-4.69899 2.59945,-18.246079 h 2.88271 l -4.3324,23.894865 h -2.88272 q -1.23307,-12.880565 -1.28305,-17.812839 -0.16664,4.132446 -2.59945,17.812839 z" />
  <path d="m 212.66756,37.345907 q 0.36658,0 0.64986,-0.233283 0.28327,-0.233283 0.33326,-0.599871 l 3.08267,-16.913032 q 0.0167,-0.04999 0.0167,-0.09998 0,-0.299936 -0.19995,-0.499893 -0.19996,-0.183294 -0.4999,-0.183294 h -2.58278 l -3.3826,18.529351 z m 4.91561,-21.228771 q 0.88314,0 1.51634,0.633197 0.63319,0.633198 0.63319,1.533004 0,0.09998 -0.0666,0.383251 l -3.44926,19.195875 q -0.16663,0.91647 -0.8998,1.533004 -0.73318,0.616534 -1.68297,0.616534 h -6.8652 l 4.33241,-23.894865 z" />
  <path d="m 224.79539,16.117136 h 6.48194 l -0.46656,2.69942 h -3.59923 l -1.34971,7.548378 h 3.58257 l -0.4999,2.666094 h -3.5659 l -1.48301,8.314879 h 3.53257 l -0.48323,2.666094 h -6.48194 z" />
  <path d="m 238.80616,26.61488 q 0.36658,0 0.64986,-0.249946 0.28327,-0.233283 0.33326,-0.583208 l 1.13309,-6.182005 v -0.09998 q 0,-0.299936 -0.19996,-0.499893 -0.21662,-0.183294 -0.51655,-0.183294 h -2.29951 l -1.41636,7.798324 z m 0.16663,3.532574 q 0,-0.283272 -0.19996,-0.483229 -0.19996,-0.199957 -0.48323,-0.199957 h -2.31617 l -1.86626,10.547733 h -2.91604 l 4.28241,-23.894865 h 6.41529 q 0.86648,0 1.49968,0.633197 0.63319,0.616535 0.66652,1.516341 0,0.08332 -0.0666,0.399914 l -1.33305,7.531715 q -0.3166,1.56633 -1.8496,1.99957 0.5832,0.21662 0.88314,0.766502 0.23328,0.43324 0.23328,0.966459 0,0.116642 -0.0167,0.249946 0,0.249947 -0.0167,0.383251 l -1.73296,9.44797 h -2.93271 l 1.74963,-9.781231 z" />
</svg>
