<svg version="1.0" width="258.9" height="56.129" preserveAspectRatio="xMidYMid" color-interpolation-filters="sRGB" xml:space="preserve" xmlns="http://www.w3.org/2000/svg">
        <path style="fill:#fff;stroke:#feffff;stroke-width:0;fill-opacity:1" d="M10 0h66L66 56.13H0L10 0"/>
            <path style="stroke:#feffff;stroke-width:0;fill:#fff;fill-opacity:1" d="M0 0h180.9l-10 56.13H-10L0 0"/>

            <path fill="#323232" d="M382.8 0h-154v187h71v104h-190v-34h82V24H0v233h79.8v49c0 8.3 7.4 15 15.7 15h220.2c8.3 0 15-6.7 15-15V187h52.1zm-352 55h130v172h-130zm322 101.1h-93.1V30.9h93.1z" style="fill:#000;fill-opacity:1" transform="matrix(.1111 0 0 .1111 17.628 10.234)"/>
            <path d="M94.8 75h39v30h-39ZM295.8 53h39v30h-39zM56.8 118h77v30h-77ZM56.8 161h77v30h-77Z" style="fill:#000;fill-opacity:1" transform="matrix(.1111 0 0 .1111 17.628 10.234)"/>

            <path d="M85.054 37.346h3.533l-.483 2.666h-6.482l4.332-23.895h2.9zM99.498 33.38l1.05-10.581-3.65 10.581zm-3.532 2.7-1.35 3.932h-3.05l8.999-23.895h2.866l-1.866 23.895h-2.717l.384-3.932zM105.427 40.012l4.333-23.895h2.883q1.25 12.93 1.3 18.246.166-4.699 2.599-18.246h2.882l-4.332 23.895h-2.883q-1.233-12.88-1.283-17.813-.166 4.133-2.6 17.813zM128.57 19.6v-.1q0-.3-.2-.5-.2-.183-.5-.183h-1.55q-.35 0-.65.233-.283.216-.35.55l-3.049 16.946v.083q0 .284.2.5.2.217.5.217h1.533q.816 0 1.016-.833l.9-5.016h2.783l-1.133 6.365q-.184.917-.933 1.533-.75.617-1.7.617h-3.983q-.883 0-1.5-.633-.616-.633-.616-1.517v-.416l3.433-19.163q.183-.933.916-1.55.75-.616 1.683-.616h4.05q.866 0 1.482.633.634.634.634 1.533 0 .25-.034.384l-1.066 5.965h-2.766zM135.249 36.63q0 .283.2.5.2.216.5.216h1.532q.817 0 1.017-.833l3.05-16.913v-.1q0-.3-.2-.5-.2-.183-.5-.183h-1.55q-.35 0-.65.233-.283.216-.35.55l-3.05 16.946zm7.148-20.513q.867 0 1.483.633.633.634.633 1.533 0 .25-.033.384l-3.433 19.195q-.183.917-.933 1.533-.75.617-1.7.617h-3.982q-.883 0-1.5-.633-.616-.633-.616-1.517v-.416l3.433-19.163q.183-.933.916-1.55.75-.616 1.683-.616zM150.859 24.915l-2.683 15.097h-2.882l4.349-23.895h3.616l-.367 17.213 5.765-17.213h3.966l-4.332 23.895h-2.883l2.65-14.913-4.85 14.913h-2.532zM168.102 24.915l-2.682 15.097h-2.883l4.35-23.895h3.615l-.367 17.213 5.766-17.213h3.966l-4.333 23.895h-2.883l2.65-14.913-4.849 14.913h-2.533zM186.929 33.38l1.05-10.581-3.65 10.581zm-3.533 2.7-1.35 3.932h-3.049l8.998-23.895h2.866l-1.866 23.895h-2.716l.383-3.932zM192.858 40.012l4.332-23.895h2.883q1.25 12.93 1.3 18.246.166-4.699 2.6-18.246h2.882l-4.332 23.895h-2.883q-1.233-12.88-1.283-17.813-.167 4.133-2.6 17.813zM212.668 37.346q.366 0 .65-.233.283-.234.333-.6l3.082-16.913q.017-.05.017-.1 0-.3-.2-.5-.2-.183-.5-.183h-2.583l-3.382 18.529zm4.915-21.229q.883 0 1.517.633.633.634.633 1.533 0 .1-.067.384l-3.45 19.195q-.166.917-.899 1.533-.733.617-1.683.617h-6.865l4.332-23.895zM224.795 16.117h6.482l-.466 2.7h-3.6l-1.35 7.548h3.583l-.5 2.666h-3.565l-1.483 8.315h3.532l-.483 2.666h-6.482zM238.806 26.615q.367 0 .65-.25.283-.233.333-.583l1.133-6.182v-.1q0-.3-.2-.5-.216-.183-.516-.183h-2.3l-1.416 7.798zm.167 3.532q0-.283-.2-.483t-.483-.2h-2.317l-1.866 10.548h-2.916l4.283-23.895h6.415q.866 0 1.5.633.633.617.666 1.517 0 .083-.067.4l-1.333 7.531q-.316 1.567-1.85 2 .584.216.884.766.233.434.233.967 0 .116-.017.25 0 .25-.016.383l-1.733 9.448h-2.933l1.75-9.781z" />
    <mask id="a">
        <path data-gra="graph-name-bg" stroke-width="0" stroke="#feffff" d="M0 0h180.9l-10 56.13H-10L0 0" fill="#fff"/>
    </mask>
</svg>
